<svg viewBox="0 0 12 12" width="60px" height="60px" xmlns="http://www.w3.org/2000/svg"><path fill-rule="evenodd" d="M 4,0 7,0 7,1 10,1 10,5 11,5 11,9 10,9 10,10 9,10 9,11 2,11 2,10 1,10 1,9 0,9 0,5 1,5 1,1 4,1z" fill="#F0B726"/><path fill-rule="evenodd" d="M 5,1 6,1 6,2 5,2z" fill="#ffffff"/><path fill-rule="evenodd" d="M 2,2 3,2 3,4 5,4 5,5 2,5z" fill="#ffffff"/><path fill-rule="evenodd" d="M 4,2 5,2 5,3 4,3z" fill="#ffffff"/><path fill-rule="evenodd" d="M 6,2 7,2 7,3 6,3z" fill="#ffffff"/><path fill-rule="evenodd" d="M 8,2 9,2 9,5 6,5 6,4 8,4z" fill="#ffffff"/><path fill-rule="evenodd" d="M 1,6 2,6 2,8 1,8z" fill="#ffffff"/><path fill-rule="evenodd" d="M 4,6 5,6 5,7 4,7z" fill="#ffffff"/><path fill-rule="evenodd" d="M 6,6 7,6 7,7 6,7z" fill="#ffffff"/><path fill-rule="evenodd" d="M 9,6 10,6 10,8 9,8z" fill="#ffffff"/><path fill-rule="evenodd" d="M 3,7 4,7 4,8 3,8z" fill="#ffffff"/><path fill-rule="evenodd" d="M 7,7 8,7 8,8 7,8z" fill="#ffffff"/><path fill-rule="evenodd" d="M 2,8 3,8 3,9 2,9z" fill="#ffffff"/><path fill-rule="evenodd" d="M 8,8 9,8 9,9 8,9z" fill="#ffffff"/><path fill-rule="evenodd" d="M 3,9 5,9 5,10 3,10z" fill="#ffffff"/><path fill-rule="evenodd" d="M 6,9 8,9 8,10 6,10z" fill="#ffffff"/></svg>